# xmcd
#
# Track frame offsets:
#	150
#	13680
#	28752
#	51900
#	67817
#	101060
#	123897
#	137325
#	153120
#	179392
#	207540
#	227659
#	251610
#
# Disc length: 3663 seconds
#
# Revision: 1
# Processed by: cddbd v1.4PL0 Copyright (c) Steve Scherf et al.
# Submitted via: audiograbber 1.81.03
#
DISCID=a80e4d0d
DTITLE=Little Mack Simmons - High and Lonesome
DYEAR=1995
DGENRE=Blues
TTITLE0=Just Keep Lovin' Her
TTITLE1=High And Lonesome
TTITLE2=Wild About You
TTITLE3=Just Your Fool
TTITLE4=Mr. Airplane Man
TTITLE5=Sun Is Shining
TTITLE6=Groundhog Blues
TTITLE7=Reefer-Head Woman
TTITLE8=On The Prowl
TTITLE9=Shake Your Moneymaker
TTITLE10=Your Imagination
TTITLE11=Tell Me Baby
TTITLE12=Mystery Train
EXTD=
EXTT0=
EXTT1=
EXTT2=
EXTT3=
EXTT4=
EXTT5=
EXTT6=
EXTT7=
EXTT8=
EXTT9=
EXTT10=
EXTT11=
EXTT12=
PLAYORDER=
